<?xml version="1.0" encoding="UTF-8" standalone="no"?>
<!-- Created with Inkscape (http://www.inkscape.org/) -->

<svg
   width="193.14583mm"
   height="193.14583mm"
   viewBox="0 0 193.14583 193.14583"
   version="1.1"
   id="svg5"
   xml:space="preserve"
   inkscape:export-filename="monochrome.svg"
   inkscape:export-xdpi="96"
   inkscape:export-ydpi="96"
   xmlns:inkscape="http://www.inkscape.org/namespaces/inkscape"
   xmlns:sodipodi="http://sodipodi.sourceforge.net/DTD/sodipodi-0.dtd"
   xmlns="http://www.w3.org/2000/svg"
   xmlns:svg="http://www.w3.org/2000/svg"><sodipodi:namedview
     id="namedview7"
     pagecolor="#505050"
     bordercolor="#eeeeee"
     borderopacity="1"
     inkscape:showpageshadow="0"
     inkscape:pageopacity="0"
     inkscape:pagecheckerboard="0"
     inkscape:deskcolor="#505050"
     inkscape:document-units="mm"
     showgrid="false" /><defs
     id="defs2"><inkscape:path-effect
       effect="offset"
       id="path-effect1953"
       is_visible="true"
       lpeversion="1.2"
       linejoin_type="miter"
       unit="mm"
       offset="2.3"
       miter_limit="4"
       attempt_force_join="false"
       update_on_knot_move="true" /><inkscape:path-effect
       effect="offset"
       id="path-effect1951"
       is_visible="true"
       lpeversion="1.2"
       linejoin_type="miter"
       unit="mm"
       offset="2.9069396"
       miter_limit="6.5"
       attempt_force_join="false"
       update_on_knot_move="true" /></defs><g
     inkscape:label="Layer 1"
     inkscape:groupmode="layer"
     id="layer1"
     transform="translate(-8.2174988,-4.0598493)"><g
       id="g303"
       transform="matrix(0.26458333,0,0,0.26458333,34.962783,-164.23622)"><g
         id="Layer_1"
         transform="translate(666.41546,614.57964)">
	<circle
   id="bg"
   class="st0"
   cx="-404"
   cy="384"
   r="354.75"
   style="fill:none;stroke:none;stroke-opacity:1" />
	<g
   id="worm"
   inkscape:path-effect="#path-effect1953">
		<path
   id="fill"
   class="st1"
   d="m -385.39648,134.61133 c -115.03767,1.99198 -238.42316,77.52214 -242.29297,220.15234 -5.09126,187.70384 142.76359,226.13321 193.73828,255.27149 13.17912,7.53348 18.25781,13.16329 18.25781,17.96484 0,38.91679 -43.6484,60.08599 -77.35742,92.75781 l -10.60938,10.28321 14.14258,4.27929 c 41.34306,12.51172 104.99487,8.33935 127.00196,5.55078 19.08474,-2.41827 39.81668,-6.378 61.84179,-12.49609 l 3.16797,-0.87891 1.79102,-2.7539 c 21.18928,-32.55914 52.21231,-98.19447 27.84961,-162.8086 -19.76258,-52.40861 -64.28185,-79.79323 -139.25391,-106.13476 -50.16456,-17.6223 -77.05614,-48.31722 -61.50977,-73.19141 20.90561,-33.4506 74.7993,20.29359 147.59375,29.02344 30.11586,3.6139 133.72852,-12.51386 133.72852,-103.63086 0,-118.83014 -96.17895,-175.15334 -198.08984,-173.38867 z"
   style="display:none"
   inkscape:original-d="m -487,727 c 32.5,-31.5 80,-55 80,-99 0,-49 -218.13,-47 -212,-273 7,-258 423,-288 423,-47 0,85 -99,98 -124,95 -68.96,-8.27 -130.27,-66.17 -156,-25 -20,32 13.28,67.48 66,86 74,26 115.7,52.47 134,101 23,61 -6.5,123.5 -27,155 -108,30 -184,7 -184,7 z" />
		<path
   id="outline"
   d="m -376.95898,122.09766 c -63.38691,-0.88596 -127.21274,19.88743 -175.14063,57.0957 -26.30535,20.41362 -47.22889,45.08532 -62.16797,73.41016 -16.23574,30.77179 -24.92785,65.04089 -25.92187,101.83007 -4.56793,168.4644 108.24042,222.03306 172.60156,252.6836 14.37952,6.84977 26.12234,12.43577 33.96094,17.82422 2.10784,1.45025 3.60025,2.66675 4.65625,3.69726 0.14956,0.14596 0.2841,0.28365 0.40625,0.41211 0.0886,0.0932 0.16468,0.17557 0.23828,0.25781 -0.71186,21.86352 -18.86694,39.24803 -43.14649,58.94727 -8.79524,7.12718 -29.52988,20.62508 -39.95703,28.9668 l -11.89453,9.51367 48.14453,18.26172 3.93164,-3.47071 c 33.9986,-30.00064 17.79032,-15.79328 18.07032,-16.11328 l -1.03321,0.99805 c 2.42755,-1.9898 4.85543,-3.96823 7.26758,-5.92188 28.46934,-23.09946 61.12695,-49.18994 61.12695,-92.48046 0,-29.39672 -30.81368,-43.55773 -63.55468,-59.15821 -62.66913,-29.84958 -152.27466,-72.57594 -148.45899,-213.27539 3.42381,-126.1919 115.94596,-192.50134 220.28125,-191.0957 74.64256,1.01541 160.33594,34.82652 160.33594,139.51953 0,20.55985 -7.28689,40.44784 -20.83594,52.45898 -26.47986,23.49832 -69.66762,26.67113 -79.44531,25.5 -23.59257,-2.83034 -47.26606,-12.62759 -69.06641,-21.67773 -18.54028,-7.69011 -37.36589,-15.42902 -53.77929,-17.50586 -23.14941,-2.92389 -41.85035,5.12211 -53.64063,23.99609 -9.71611,15.53876 -11.73673,32.92471 -5.73242,50.06641 10.01672,28.56074 40.98849,52.51568 82.68164,67.16406 75.53137,26.53805 106.94651,50.69242 121.19922,88.48633 20.04,53.13851 2.04902,116.72533 -35.74414,140.1211 l -3.81641,2.36132 -0.2832,4.48047 c -0.67078,10.59833 13.30035,9.96172 19.57031,10.33789 9.39328,0.56357 22.81122,1.22112 25.12891,0.36133 l 0.006,-0.002 0.006,-0.002 c 20.08544,-7.48496 61.80728,-100.98286 34.79882,-172.62109 -10.45194,-27.73661 -28.01887,-50.14134 -53.5,-68.63281 -22.58573,-16.3843 -51.58154,-30.23424 -93.30078,-44.89453 -31.10651,-10.93271 -51.92049,-27.48489 -56.73047,-41.19727 -1.63881,-4.66871 -1.18035,-9.00931 1.67774,-13.57422 5.1392,-8.22051 15.93374,-6.10503 55.25,10.20313 23.2978,9.65909 50.82132,21.0809 80.25195,24.61133 21.37388,2.57034 75.94879,-3.33634 112.62696,-35.87891 23.48374,-20.84265 35.09375,-52.15896 35.09374,-84.16406 -0.0105,-57.73642 -21.68224,-101.90859 -62.90039,-135.50586 -36.04123,-29.37745 -85.58245,-45.67262 -139.26171,-46.39453 z"
   style="fill:#ffffff;fill-opacity:1"
   inkscape:original-d="m -243.19,175.23 c -34.29,-27.95 -81.84,-43.74 -133.89,-44.44 -61.53,-0.86 -123.37,19.31 -169.69,55.27 -25.36,19.68 -45.48,43.43 -59.81,70.6 -15.57,29.51 -23.96,62.48 -24.92,98.01 -4.41,162.64 103.29,213.95 167.65,244.6 14.38,6.85 26.8,12.77 35.15,18.51 5.93,4.08 9.2,7.71 9.2,10.23 0,26.84 -21.48,46.7 -46.5,67 -9.28,7.52 -30,21 -40,29 l 29,11 c 0,0 17,-15 17.28,-15.32 2.44,-2 4.88,-3.99 7.3,-5.95 28.47,-23.1 57.91,-46.98 57.91,-85.73 0,-23.39 -25.86,-35.71 -58.6,-51.31 -62.67,-29.85 -157.38,-74.97 -153.41,-221.36 3.57,-131.58 120.72,-201.01 229.09,-199.55 77.92,1.06 168.91,37.56 168.91,148.21 0,22.49 -7.99,44.98 -23.76,58.96 -28.42,25.22 -73.81,29.12 -86.25,27.63 -24.84,-2.98 -49.56,-13.23 -71.36,-22.28 -18.54,-7.69 -36.05,-14.95 -51.54,-16.91 -20.11,-2.54 -35.31,4.18 -45.18,19.98 -8.31,13.29 -10,28.02 -4.9,42.58 8.81,25.12 37,47.66 77.36,61.84 76.59,26.91 110.86,52.28 126.45,93.62 21.27,56.4 2.7,124.58 -39.3,150.58 -0.05,0.79 32.38,2.23 33,2 12.8,-4.77 56.17,-91.2 29.7,-161.41 -9.79,-25.98 -26.3,-47.12 -50.47,-64.66 -21.67,-15.72 -49.76,-29.21 -91.08,-43.73 -32.18,-11.31 -55.95,-29.13 -62.05,-46.52 -2.58,-7.35 -1.76,-14.24 2.51,-21.06 9.29,-14.86 26.34,-9.65 65.95,6.78 23.3,9.66 49.7,20.62 77.96,24.01 18.71,2.25 71.32,-3.14 105.82,-33.75 21.34,-18.94 32.17,-47.72 32.17,-77.66 -0.01,-55.02 -20.65,-96.94 -59.7,-128.77 z" />
		<g
   id="g155"
   style="fill:#ffffff;fill-opacity:1">
			<path
   d="m -348.4668,619.51367 c -40.51693,1.03845 -69.61945,14.54603 -74.85742,17.1543 l -7.7793,3.87305 18.88477,37.94531 7.78125,-3.875 c 20.49449,-10.20207 70.62709,-22.62622 122.03711,0.375 l 7.93555,3.54883 17.30859,-38.68946 -7.93359,-3.55078 c -30.20593,-13.5173 -58.89579,-17.40869 -83.37696,-16.78125 z"
   id="path153"
   style="fill:#ffffff;fill-opacity:1"
   inkscape:original-d="m -278.85,667.05 c -54,-24.16 -106.78,-11.51 -129.46,-0.22 l -11.14,-22.38 c 7.33,-3.65 73.85,-34.66 150.81,-0.22 z" />
		</g>
		<path
   d="m -407.27344,468.33984 c -28.34769,-0.66598 -48.14207,5.51971 -69.13672,19.25586 -30.06151,19.66867 -40.98134,49.2963 -48.40039,69.09375 l -3.05078,8.14063 39.69336,14.86914 3.04883,-8.14063 c 6.55005,-17.49014 13.85626,-36.68584 31.91797,-48.49609 21.98956,-14.38977 64.18868,-17.84659 117.39648,-6.55859 l 21.48047,4.55664 -30.50586,-43.84961 -3.36523,-0.71485 c -23.41593,-4.96678 -42.58542,-7.76877 -59.07813,-8.15625 z"
   id="path157"
   style="fill:#ffffff;fill-opacity:1"
   inkscape:original-d="m -493.26,568.51 -23.41,-8.77 c 7.42,-19.8 17.57,-46.91 45.02,-64.87 30.92,-20.23 59.89,-22.97 121.65,-9.87 l 16,23 c -54.16,-11.49 -99.25,-8.38 -123.96,7.79 -20.6,13.47 -28.75,35.23 -35.3,52.72 z" />
		<path
   d="m -515.00586,381.22461 c -17.24107,-0.62252 -35.52556,2.44934 -52.98828,9.19727 -28.85257,11.15434 -50.47624,30.72136 -57.51953,54.47656 l -2.47071,8.33203 40.63282,12.05469 2.47461,-8.33008 c 2.75345,-9.26949 14.01242,-19.98104 32.16211,-26.99805 23.55106,-9.10307 48.43253,-8.15559 63.09961,0.73633 l 7.43359,4.50586 21.9707,-36.2461 -7.43359,-4.50585 c -13.63473,-8.26483 -30.1197,-12.60012 -47.36133,-13.22266 z"
   id="path159"
   style="fill:#ffffff;fill-opacity:1"
   inkscape:original-d="m -593.21,454.48 -23.97,-7.11 c 6.09,-20.54 25.16,-38.34 52.32,-48.84 32.84,-12.69 68.36,-11.41 92.71,3.35 l -12.96,21.38 c -17.6,-10.67 -45.36,-11.22 -70.74,-1.41 -19.58,7.57 -33.54,19.77 -37.36,32.63 z" />
		<path
   d="m -548.62109,199.1543 c -7.10557,0.0894 -12.8369,0.72096 -16.56446,1.23437 l -3.25,0.44727 -36.21093,41.92968 22.83593,-3.15429 c 20.83981,-2.87853 68.84341,3.75076 88.28321,22.28125 20.04902,19.1124 29.17701,51.92888 24.9082,99.63281 l -0.77539,8.6582 42.21875,3.7793 0.77344,-8.66016 c 5.25922,-58.80866 -6.81975,-104.48812 -37.87891,-134.08593 -29.08867,-27.724 -62.95764,-32.33161 -84.33984,-32.0625 z"
   id="path161"
   style="fill:#ffffff;fill-opacity:1"
   inkscape:original-d="m -435.06,364.53 -24.9,-2.23 c 4.4,-49.17 -4.88,-85.07 -27.57,-106.7 -22.02,-20.99 -72.52,-27.77 -95.47,-24.6 l 19,-22 c 13.94,-1.92 57.91,-5.62 93.72,28.51 28.48,27.14 40.33,69.88 35.22,127.02 z" />
		<circle
   id="big_eye"
   class="st2"
   cx="-350.53342"
   cy="250.3275"
   r="25"
   style="fill:#ffffff;fill-opacity:1"
   d="m -350.5332,216.63477 c -18.65194,0 -33.69336,15.04143 -33.69336,33.69335 0,18.65194 15.04143,33.69336 33.69336,33.69336 18.65193,0 33.69336,-15.04142 33.69336,-33.69336 0,-18.65192 -15.04143,-33.69335 -33.69336,-33.69335 z" />
		<circle
   id="small_eye"
   class="st2"
   cx="-287.35742"
   cy="240.82812"
   r="15.5"
   style="fill:#ffffff;fill-opacity:1"
   d="m -287.35742,216.63477 c -13.40523,0 -24.19336,10.78814 -24.19336,24.19335 0,13.40523 10.78813,24.19336 24.19336,24.19336 13.40522,0 24.19336,-10.78812 24.19336,-24.19336 0,-13.40522 -10.78814,-24.19335 -24.19336,-24.19335 z" />
	</g>
	<g
   id="g168">
		<path
   d="m -403.16797,21.501953 c -201.27772,0 -364.33008,163.374547 -364.33008,364.998047 0,201.6235 163.05236,364.99805 364.33008,364.99805 201.27772,0 364.330079,-163.37455 364.330079,-364.99805 0,-201.6235 -163.052359,-364.998047 -364.330079,-364.998047 z m 0,44.28125 c 43.22392,0 85.16529,8.486259 124.57227,25.191406 38.10494,16.144581 72.33988,39.272161 101.75976,68.738281 29.42073,29.47633 52.49582,63.76275 68.61328,101.95703 16.675862,39.49612 25.146488,81.51612 25.146488,124.83008 0,43.31395 -8.472491,85.34505 -25.148438,124.83203 -16.11636,38.18228 -39.20086,72.48159 -68.61133,101.95703 -29.42044,29.47608 -63.64242,52.59241 -101.75976,68.73828 -39.41641,16.70517 -81.34868,25.19141 -124.57227,25.19141 -43.22357,0 -85.16497,-8.48811 -124.57226,-25.19336 -38.10523,-16.14471 -72.34007,-39.27037 -101.75977,-68.73633 -29.42056,-29.47617 -52.49577,-63.76459 -68.61328,-101.95898 -16.67586,-39.49613 -25.14649,-81.51613 -25.14649,-124.83008 0,-43.31396 8.4725,-85.34506 25.14844,-124.83203 16.1163,-38.18216 39.20068,-72.47947 68.61133,-101.95508 29.4206,-29.47626 63.64381,-52.59412 101.76172,-68.740234 39.40507,-16.704327 81.34641,-25.189453 124.57031,-25.189453 z"
   id="path166"
   style="fill:#ffffff;fill-opacity:1;stroke:none;stroke-width:0.968979;stroke-opacity:1"
   inkscape:path-effect="#path-effect1951"
   inkscape:original-d="m -403.16797,54.796008 c 44.70526,0 88.0649,8.767855 128.85916,26.061089 39.41962,16.701598 74.83146,40.628933 105.24805,71.093333 30.41661,30.4741 54.2891,65.94318 70.959191,105.44703 17.260605,40.88107 26.011915,84.313 26.011915,129.10277 0,44.78976 -8.75131,88.23137 -26.011915,129.10277 -16.670091,39.49414 -40.552251,74.97292 -70.959191,105.44703 -30.41659,30.47411 -65.81874,54.39173 -105.24805,71.09333 -40.80394,17.29322 -84.1539,26.06108 -128.85916,26.06108 -44.70524,0 -88.06489,-8.76786 -128.85918,-26.06108 -39.41961,-16.7016 -74.83145,-40.62892 -105.24803,-71.09333 -30.41661,-30.47411 -54.28911,-65.94319 -70.95919,-105.44703 -17.26061,-40.88108 -26.01191,-84.31301 -26.01191,-129.10277 0,-44.78977 8.7513,-88.23139 26.01191,-129.10277 16.67008,-39.49415 40.55225,-74.97293 70.95919,-105.44703 30.41658,-30.47413 65.81873,-54.391735 105.24803,-71.093333 40.79429,-17.293234 84.15394,-26.061089 128.85918,-26.061089 m 0,-22.307594 c -195.14259,0 -353.34382,158.500316 -353.34382,354.011816 0,195.5115 158.20123,354.01181 353.34382,354.01181 195.14258,0 353.343815,-158.50031 353.343815,-354.01181 0,-195.5115 -158.201235,-354.011816 -353.343815,-354.011816 z" />
	</g>
</g></g></g><style
     type="text/css"
     id="style148">
	.st0{fill:#138C84;}
	.st1{fill:#D04445;}
	.st2{fill:#600D0F;}
	.st3{fill:#5E6B69;}
	.st4{fill:#D09292;}
	.st5{fill:none;}
	.st6{fill:#0A1D27;}
	.st7{fill:#FFFFFF;}
</style></svg>
